<svg xmlns="http://www.w3.org/2000/svg" width="1024" height="1024" viewBox="0 0 400 400" role="img"><title>아기</title><desc>Resolution-independent vocabulary illustration. Vector paths only. No embedded raster images.</desc><defs><radialGradient id="mAFC1C3" cx=".28" cy=".2" r=".86"><stop stop-color="#cbd6d8"/><stop offset=".5" stop-color="#AFC1C3"/><stop offset="1" stop-color="#8c9a9c"/></radialGradient><radialGradient id="mDDB69E" cx=".28" cy=".2" r=".86"><stop stop-color="#e8cfbf"/><stop offset=".5" stop-color="#DDB69E"/><stop offset="1" stop-color="#b0917e"/></radialGradient><radialGradient id="m696059" cx=".28" cy=".2" r=".86"><stop stop-color="#9d9793"/><stop offset=".5" stop-color="#696059"/><stop offset="1" stop-color="#544c47"/></radialGradient><radialGradient id="m333A3E" cx=".28" cy=".2" r=".86"><stop stop-color="#7a7e81"/><stop offset=".5" stop-color="#333A3E"/><stop offset="1" stop-color="#282e31"/></radialGradient><radialGradient id="mAC7C6D" cx=".28" cy=".2" r=".86"><stop stop-color="#c9a9a0"/><stop offset=".5" stop-color="#AC7C6D"/><stop offset="1" stop-color="#896357"/></radialGradient><radialGradient id="mE7AD99" cx=".28" cy=".2" r=".86"><stop stop-color="#efc9bc"/><stop offset=".5" stop-color="#E7AD99"/><stop offset="1" stop-color="#b88a7a"/></radialGradient></defs><rect width="400" height="400" rx="32" fill="#FBF8F1"/><ellipse cx="202" cy="347" rx="137" ry="19" fill="#CAC3B6" opacity=".15"/><path d="M57 315 V328 C57 355 343 355 343 328 V315" fill="#DADCCE"/><ellipse cx="200" cy="315" rx="143" ry="34" fill="#E8EDDF"/><ellipse cx="200" cy="312" rx="126" ry="27" fill="#F4F5EC"/><ellipse cx="200" cy="313" rx="88" ry="12" fill="#9DA98E" opacity=".17"/><g><g transform="translate(0 0) translate(200 195) scale(1) translate(-200 -195)"><ellipse cx="200" cy="266" rx="40" ry="40" fill="url(#mAFC1C3)"/><ellipse cx="173" cy="310" rx="23" ry="10" fill="url(#mDDB69E)"/><ellipse cx="229" cy="310" rx="23" ry="10" fill="url(#mDDB69E)"/><ellipse cx="157" cy="270" rx="14" ry="32" transform="rotate(25 157 270)" fill="url(#mDDB69E)"/><ellipse cx="244" cy="270" rx="14" ry="32" transform="rotate(-25 244 270)" fill="url(#mDDB69E)"/><ellipse cx="200" cy="195" rx="65" ry="70" fill="url(#mDDB69E)"/><ellipse cx="134" cy="204" rx="12" ry="17" fill="url(#mDDB69E)"/><ellipse cx="267" cy="204" rx="12" ry="17" fill="url(#mDDB69E)"/><path d="M181 132 Q207 104 219 133 Q200 126 196 142" stroke-linecap="round" stroke-linejoin="round" fill="url(#m696059)"/><ellipse cx="177" cy="200" rx="5" ry="6.5" fill="url(#m333A3E)"/><ellipse cx="175.5" cy="198.0" rx="1.5" ry="1.5" fill="#FFFFFF"/><ellipse cx="226" cy="200" rx="5" ry="6.5" fill="url(#m333A3E)"/><ellipse cx="224.5" cy="198.0" rx="1.5" ry="1.5" fill="#FFFFFF"/><ellipse cx="201" cy="233" rx="12" ry="7" fill="url(#mAC7C6D)"/><ellipse cx="158" cy="220" rx="11" ry="6" fill="url(#mE7AD99)"/><ellipse cx="241" cy="220" rx="11" ry="6" fill="url(#mE7AD99)"/></g></g></svg>