<svg xmlns="http://www.w3.org/2000/svg" width="1024" height="1024" viewBox="0 0 400 400" role="img"><title>꽃</title><desc>Resolution-independent vocabulary illustration. Vector paths only. No embedded raster images.</desc><defs><radialGradient id="m91AC77" cx=".28" cy=".2" r=".86"><stop stop-color="#b7c9a6"/><stop offset=".5" stop-color="#91AC77"/><stop offset="1" stop-color="#74895f"/></radialGradient><radialGradient id="mA7BC80" cx=".28" cy=".2" r=".86"><stop stop-color="#c5d3ac"/><stop offset=".5" stop-color="#A7BC80"/><stop offset="1" stop-color="#859666"/></radialGradient><radialGradient id="mCF9C9F" cx=".28" cy=".2" r=".86"><stop stop-color="#dfbec0"/><stop offset=".5" stop-color="#CF9C9F"/><stop offset="1" stop-color="#a57c7f"/></radialGradient><radialGradient id="mDDC385" cx=".28" cy=".2" r=".86"><stop stop-color="#e8d8af"/><stop offset=".5" stop-color="#DDC385"/><stop offset="1" stop-color="#b09c6a"/></radialGradient></defs><rect width="400" height="400" rx="32" fill="#FBF8F1"/><ellipse cx="202" cy="347" rx="137" ry="19" fill="#CAC3B6" opacity=".15"/><path d="M57 315 V328 C57 355 343 355 343 328 V315" fill="#DADCCE"/><ellipse cx="200" cy="315" rx="143" ry="34" fill="#E8EDDF"/><ellipse cx="200" cy="312" rx="126" ry="27" fill="#F4F5EC"/><ellipse cx="200" cy="313" rx="88" ry="12" fill="#9DA98E" opacity=".17"/><g><path d="M201 303 V187" stroke="#7F9B71" stroke-width="9" stroke-linecap="round" stroke-linejoin="round" fill="none"/><g transform="translate(200 279) rotate(-60) scale(0.6)"><path d="M0 0 C-32 -20 -36 -54 -4 -76 C21 -68 38 -36 0 0Z" stroke-linecap="round" stroke-linejoin="round" fill="url(#m91AC77)"/><path d="M0 -5 Q-8 -35 -4 -68" stroke="#74895f" stroke-width="2.2" stroke-linecap="round" stroke-linejoin="round" fill="none"/><path d="M-3 -27 L-20 -39 M-5 -38 L14 -53" stroke="#829a6b" stroke-width="1.5" stroke-linecap="round" stroke-linejoin="round" fill="none"/></g><g transform="translate(202 254) rotate(58) scale(0.6)"><path d="M0 0 C-32 -20 -36 -54 -4 -76 C21 -68 38 -36 0 0Z" stroke-linecap="round" stroke-linejoin="round" fill="url(#mA7BC80)"/><path d="M0 -5 Q-8 -35 -4 -68" stroke="#859666" stroke-width="2.2" stroke-linecap="round" stroke-linejoin="round" fill="none"/><path d="M-3 -27 L-20 -39 M-5 -38 L14 -53" stroke="#96a973" stroke-width="1.5" stroke-linecap="round" stroke-linejoin="round" fill="none"/></g><ellipse cx="200.0" cy="211.0" rx="25" ry="32" transform="rotate(0 200.0 211.0)" fill="url(#mCF9C9F)"/><ellipse cx="232.90896534380866" cy="192.0" rx="25" ry="32" transform="rotate(-60 232.90896534380866 192.0)" fill="url(#mCF9C9F)"/><ellipse cx="232.9089653438087" cy="154.0" rx="25" ry="32" transform="rotate(-120 232.9089653438087 154.0)" fill="url(#mCF9C9F)"/><ellipse cx="200.0" cy="135.0" rx="25" ry="32" transform="rotate(-180 200.0 135.0)" fill="url(#mCF9C9F)"/><ellipse cx="167.09103465619134" cy="153.99999999999997" rx="25" ry="32" transform="rotate(-240 167.09103465619134 153.99999999999997)" fill="url(#mCF9C9F)"/><ellipse cx="167.09103465619134" cy="192.0" rx="25" ry="32" transform="rotate(-300 167.09103465619134 192.0)" fill="url(#mCF9C9F)"/><ellipse cx="201" cy="175" rx="30" ry="30" fill="url(#mDDC385)"/></g></svg>