<svg xmlns="http://www.w3.org/2000/svg" width="1024" height="1024" viewBox="0 0 400 400" role="img"><title>발</title><desc>Resolution-independent vocabulary illustration. Vector paths only. No embedded raster images.</desc><defs><radialGradient id="mE0B69C" cx=".28" cy=".2" r=".86"><stop stop-color="#eacfbe"/><stop offset=".5" stop-color="#E0B69C"/><stop offset="1" stop-color="#b3917c"/></radialGradient></defs><rect width="400" height="400" rx="32" fill="#FBF8F1"/><ellipse cx="202" cy="347" rx="137" ry="19" fill="#CAC3B6" opacity=".15"/><path d="M57 315 V328 C57 355 343 355 343 328 V315" fill="#DADCCE"/><ellipse cx="200" cy="315" rx="143" ry="34" fill="#E8EDDF"/><ellipse cx="200" cy="312" rx="126" ry="27" fill="#F4F5EC"/><ellipse cx="200" cy="313" rx="88" ry="12" fill="#9DA98E" opacity=".17"/><g><path d="M151 295 Q128 280 143 238 L158 190 Q145 174 155 158 Q166 145 178 157 Q178 135 193 136 Q207 135 209 153 Q220 135 230 146 Q241 151 236 166 Q251 150 260 165 Q269 174 255 187 Q275 176 281 191 Q286 206 265 222 L232 286 Q191 324 151 295Z" stroke-linecap="round" stroke-linejoin="round" fill="url(#mE0B69C)"/><path d="M164 239 Q180 257 209 253" stroke="#C79C83" stroke-width="3" stroke-linecap="round" stroke-linejoin="round" fill="none"/></g></svg>