<svg xmlns="http://www.w3.org/2000/svg" width="1024" height="1024" viewBox="0 0 400 400" role="img"><title>팔꿈치</title><desc>Resolution-independent vocabulary illustration. Vector paths only. No embedded raster images.</desc><defs><radialGradient id="mE0B69C" cx=".28" cy=".2" r=".86"><stop stop-color="#eacfbe"/><stop offset=".5" stop-color="#E0B69C"/><stop offset="1" stop-color="#b3917c"/></radialGradient></defs><rect width="400" height="400" rx="32" fill="#FBF8F1"/><ellipse cx="202" cy="347" rx="137" ry="19" fill="#CAC3B6" opacity=".15"/><path d="M57 315 V328 C57 355 343 355 343 328 V315" fill="#DADCCE"/><ellipse cx="200" cy="315" rx="143" ry="34" fill="#E8EDDF"/><ellipse cx="200" cy="312" rx="126" ry="27" fill="#F4F5EC"/><ellipse cx="200" cy="313" rx="88" ry="12" fill="#9DA98E" opacity=".17"/><g><path d="M104 139 Q124 112 150 141 L214 225 L290 185 Q313 176 324 199 Q333 220 310 232 L217 282 Q201 290 185 272 L101 183 Q 80 161 104 139Z" stroke-linecap="round" stroke-linejoin="round" fill="url(#mE0B69C)"/><path d="M200 234 Q183 251 198 270" stroke="#C59379" stroke-width="3" stroke-linecap="round" stroke-linejoin="round" fill="none"/><ellipse cx="209" cy="253" rx="30" ry="30" stroke="#BD8055" stroke-width="4" fill="none"/></g></svg>