<svg xmlns="http://www.w3.org/2000/svg" width="1024" height="1024" viewBox="0 0 400 400" role="img"><title>소방관</title><desc>Resolution-independent vocabulary illustration. Vector paths only. No embedded raster images.</desc><defs><radialGradient id="m778D9D" cx=".28" cy=".2" r=".86"><stop stop-color="#a6b4bf"/><stop offset=".5" stop-color="#778D9D"/><stop offset="1" stop-color="#5f707d"/></radialGradient><radialGradient id="m667780" cx=".28" cy=".2" r=".86"><stop stop-color="#9ba6ac"/><stop offset=".5" stop-color="#667780"/><stop offset="1" stop-color="#515f66"/></radialGradient><radialGradient id="mBE8B71" cx=".28" cy=".2" r=".86"><stop stop-color="#d4b3a2"/><stop offset=".5" stop-color="#BE8B71"/><stop offset="1" stop-color="#986f5a"/></radialGradient><radialGradient id="mDDB69E" cx=".28" cy=".2" r=".86"><stop stop-color="#e8cfbf"/><stop offset=".5" stop-color="#DDB69E"/><stop offset="1" stop-color="#b0917e"/></radialGradient><radialGradient id="m696059" cx=".28" cy=".2" r=".86"><stop stop-color="#9d9793"/><stop offset=".5" stop-color="#696059"/><stop offset="1" stop-color="#544c47"/></radialGradient><radialGradient id="m333A3E" cx=".28" cy=".2" r=".86"><stop stop-color="#7a7e81"/><stop offset=".5" stop-color="#333A3E"/><stop offset="1" stop-color="#282e31"/></radialGradient><radialGradient id="mC79680" cx=".28" cy=".2" r=".86"><stop stop-color="#dabaac"/><stop offset=".5" stop-color="#C79680"/><stop offset="1" stop-color="#9f7866"/></radialGradient><radialGradient id="mC99871" cx=".28" cy=".2" r=".86"><stop stop-color="#dbbca2"/><stop offset=".5" stop-color="#C99871"/><stop offset="1" stop-color="#a0795a"/></radialGradient><radialGradient id="mBA8B67" cx=".28" cy=".2" r=".86"><stop stop-color="#d2b39c"/><stop offset=".5" stop-color="#BA8B67"/><stop offset="1" stop-color="#946f52"/></radialGradient><radialGradient id="mE8D291" cx=".28" cy=".2" r=".86"><stop stop-color="#f0e1b7"/><stop offset=".5" stop-color="#E8D291"/><stop offset="1" stop-color="#b9a874"/></radialGradient><radialGradient id="mDCCF9E" cx=".28" cy=".2" r=".86"><stop stop-color="#e8dfbf"/><stop offset=".5" stop-color="#DCCF9E"/><stop offset="1" stop-color="#b0a57e"/></radialGradient><radialGradient id="mDDC99B" cx=".28" cy=".2" r=".86"><stop stop-color="#e8dbbe"/><stop offset=".5" stop-color="#DDC99B"/><stop offset="1" stop-color="#b0a07c"/></radialGradient></defs><rect width="400" height="400" rx="32" fill="#FBF8F1"/><ellipse cx="202" cy="347" rx="137" ry="19" fill="#CAC3B6" opacity=".15"/><path d="M57 315 V328 C57 355 343 355 343 328 V315" fill="#DADCCE"/><ellipse cx="200" cy="315" rx="143" ry="34" fill="#E8EDDF"/><ellipse cx="200" cy="312" rx="126" ry="27" fill="#F4F5EC"/><ellipse cx="200" cy="313" rx="88" ry="12" fill="#9DA98E" opacity=".17"/><g><g transform="translate(0 0) translate(200 195) scale(1) translate(-200 -195)"><path d="M164 256 H237 L243 313 H212 L199 279 L186 313 H156Z" stroke-linecap="round" stroke-linejoin="round" fill="url(#m778D9D)"/><ellipse cx="170" cy="315" rx="24" ry="9" fill="url(#m667780)"/><ellipse cx="230" cy="315" rx="24" ry="9" fill="url(#m667780)"/><path d="M167 184 L144 196 L127 268 Q128 280 140 279 L162 237 L158 271 H242 L239 237 L261 279 Q274 281 274 266 L255 196 L232 184Z" stroke-linecap="round" stroke-linejoin="round" fill="url(#mBE8B71)"/><ellipse cx="132" cy="275" rx="10" ry="12" fill="url(#mDDB69E)"/><ellipse cx="270" cy="275" rx="10" ry="12" fill="url(#mDDB69E)"/><rect x="189" y="169" width="23" height="23" rx="6" fill="url(#mDDB69E)"/><ellipse cx="200" cy="141" rx="50" ry="50" fill="url(#mDDB69E)"/><ellipse cx="149" cy="147" rx="9" ry="13" fill="url(#mDDB69E)"/><ellipse cx="251" cy="147" rx="9" ry="13" fill="url(#mDDB69E)"/><path d="M150 132 C139 78 195 77 219 86 Q258 88 251 130 L236 112 Q201 132 177 104 L164 128Z" stroke-linecap="round" stroke-linejoin="round" fill="url(#m696059)"/><ellipse cx="182" cy="143" rx="4" ry="5.2" fill="url(#m333A3E)"/><ellipse cx="180.8" cy="141.4" rx="1.2" ry="1.2" fill="#FFFFFF"/><ellipse cx="220" cy="143" rx="4" ry="5.2" fill="url(#m333A3E)"/><ellipse cx="218.8" cy="141.4" rx="1.2" ry="1.2" fill="#FFFFFF"/><ellipse cx="201" cy="157" rx="4" ry="3" fill="url(#mC79680)"/><path d="M190 169 Q201 177 213 167" stroke="#A07A69" stroke-width="2.5" stroke-linecap="round" stroke-linejoin="round" fill="none"/><path d="M148 113 Q140 73 201 70 Q260 75 252 114Z" stroke-linecap="round" stroke-linejoin="round" fill="url(#mC99871)"/><ellipse cx="200" cy="113" rx="61" ry="9" fill="url(#mBA8B67)"/><rect x="191" y="78" width="18" height="26" rx="3" fill="url(#mE8D291)"/><rect x="155" y="237" width="91" height="11" rx="1" fill="url(#mDCCF9E)"/><path d="M175 189 V267 M226 189 V266" stroke="#E1D4A0" stroke-width="5" stroke-linecap="round" stroke-linejoin="round" fill="none"/><rect x="167" y="280" width="20" height="10" rx="1" fill="url(#mDDC99B)"/><rect x="214" y="280" width="20" height="10" rx="1" fill="url(#mDDC99B)"/></g></g></svg>