<svg xmlns="http://www.w3.org/2000/svg" width="1024" height="1024" viewBox="0 0 400 400" role="img"><title>재킷</title><desc>Resolution-independent vocabulary illustration. Vector paths only. No embedded raster images.</desc><defs><radialGradient id="m4F6D83" cx=".28" cy=".2" r=".86"><stop stop-color="#8ca0ae"/><stop offset=".5" stop-color="#4F6D83"/><stop offset="1" stop-color="#3f5768"/></radialGradient><radialGradient id="m3f5768" cx=".28" cy=".2" r=".86"><stop stop-color="#82919c"/><stop offset=".5" stop-color="#3f5768"/><stop offset="1" stop-color="#324553"/></radialGradient><radialGradient id="m728a9b" cx=".28" cy=".2" r=".86"><stop stop-color="#a3b2be"/><stop offset=".5" stop-color="#728a9b"/><stop offset="1" stop-color="#5b6e7c"/></radialGradient><radialGradient id="m334655" cx=".28" cy=".2" r=".86"><stop stop-color="#7a8690"/><stop offset=".5" stop-color="#334655"/><stop offset="1" stop-color="#283844"/></radialGradient><radialGradient id="m486478" cx=".28" cy=".2" r=".86"><stop stop-color="#889aa7"/><stop offset=".5" stop-color="#486478"/><stop offset="1" stop-color="#395060"/></radialGradient></defs><rect width="400" height="400" rx="32" fill="#FBF8F1"/><ellipse cx="202" cy="347" rx="137" ry="19" fill="#CAC3B6" opacity=".15"/><path d="M57 315 V328 C57 355 343 355 343 328 V315" fill="#DADCCE"/><ellipse cx="200" cy="315" rx="143" ry="34" fill="#E8EDDF"/><ellipse cx="200" cy="312" rx="126" ry="27" fill="#F4F5EC"/><ellipse cx="200" cy="313" rx="88" ry="12" fill="#9DA98E" opacity=".17"/><g><path d="M155 115 L115 132 L 70 242 L109 258 L139 188 L137 281 Q199 289 263 281 L262 188 L292 258 L331 242 L286 132 L245 115 Q200 139 155 115Z" stroke-linecap="round" stroke-linejoin="round" fill="url(#m4F6D83)"/><path d="M166 115 Q197 157 232 115 L221 107 Q199 134 178 107Z" stroke-linecap="round" stroke-linejoin="round" fill="url(#m3f5768)"/><path d="M156 119 L199 158 L175 184 L151 153Z" stroke-linecap="round" stroke-linejoin="round" fill="url(#m728a9b)"/><path d="M244 119 L201 158 L224 184 L249 153Z" stroke-linecap="round" stroke-linejoin="round" fill="url(#m728a9b)"/><path d="M201 161 V277" stroke="#3b5162" stroke-width="3" stroke-linecap="round" stroke-linejoin="round" fill="none"/><ellipse cx="207" cy="186" rx="3.7" ry="3.7" fill="url(#m334655)"/><ellipse cx="207" cy="214" rx="3.7" ry="3.7" fill="url(#m334655)"/><ellipse cx="207" cy="242" rx="3.7" ry="3.7" fill="url(#m334655)"/><ellipse cx="207" cy="270" rx="3.7" ry="3.7" fill="url(#m334655)"/><path d="M148 228 H173 V251 Q161 259 148 251Z" stroke-linecap="round" stroke-linejoin="round" fill="url(#m486478)"/><path d="M231 228 H256 V251 Q244 259 231 251Z" stroke-linecap="round" stroke-linejoin="round" fill="url(#m486478)"/></g></svg>