<svg xmlns="http://www.w3.org/2000/svg" width="1024" height="1024" viewBox="0 0 400 400" role="img"><title>다리</title><desc>Resolution-independent vocabulary illustration. Vector paths only. No embedded raster images.</desc><defs><radialGradient id="mE0B69C" cx=".28" cy=".2" r=".86"><stop stop-color="#eacfbe"/><stop offset=".5" stop-color="#E0B69C"/><stop offset="1" stop-color="#b3917c"/></radialGradient><radialGradient id="m9CB7B8" cx=".28" cy=".2" r=".86"><stop stop-color="#bed0d0"/><stop offset=".5" stop-color="#9CB7B8"/><stop offset="1" stop-color="#7c9293"/></radialGradient></defs><rect width="400" height="400" rx="32" fill="#FBF8F1"/><ellipse cx="202" cy="347" rx="137" ry="19" fill="#CAC3B6" opacity=".15"/><path d="M57 315 V328 C57 355 343 355 343 328 V315" fill="#DADCCE"/><ellipse cx="200" cy="315" rx="143" ry="34" fill="#E8EDDF"/><ellipse cx="200" cy="312" rx="126" ry="27" fill="#F4F5EC"/><ellipse cx="200" cy="313" rx="88" ry="12" fill="#9DA98E" opacity=".17"/><g><path d="M158 105 H221 Q228 166 237 210 L228 283 L284 287 Q311 298 286 316 H202 Q184 310 184 291 L187 226 Q149 178 158 105Z" stroke-linecap="round" stroke-linejoin="round" fill="url(#mE0B69C)"/><path d="M156 107 H223 L227 163 H157Z" stroke-linecap="round" stroke-linejoin="round" fill="url(#m9CB7B8)"/><path d="M205 211 Q224 202 229 221" stroke="#BA9279" stroke-width="3" stroke-linecap="round" stroke-linejoin="round" fill="none"/></g></svg>