<svg xmlns="http://www.w3.org/2000/svg" width="1024" height="1024" viewBox="0 0 400 400" role="img"><title>모기</title><desc>Resolution-independent vocabulary illustration. Vector paths only. No embedded raster images.</desc><defs><radialGradient id="mA49383" cx=".28" cy=".2" r=".86"><stop stop-color="#c3b8ae"/><stop offset=".5" stop-color="#A49383"/><stop offset="1" stop-color="#837568"/></radialGradient><radialGradient id="mCEDDD3" cx=".28" cy=".2" r=".86"><stop stop-color="#dfe8e2"/><stop offset=".5" stop-color="#CEDDD3"/><stop offset="1" stop-color="#a4b0a8"/></radialGradient><radialGradient id="m8A9888" cx=".28" cy=".2" r=".86"><stop stop-color="#b2bcb1"/><stop offset=".5" stop-color="#8A9888"/><stop offset="1" stop-color="#6e796c"/></radialGradient><radialGradient id="m333A3E" cx=".28" cy=".2" r=".86"><stop stop-color="#7a7e81"/><stop offset=".5" stop-color="#333A3E"/><stop offset="1" stop-color="#282e31"/></radialGradient></defs><rect width="400" height="400" rx="32" fill="#FBF8F1"/><ellipse cx="202" cy="347" rx="137" ry="19" fill="#CAC3B6" opacity=".15"/><path d="M57 315 V328 C57 355 343 355 343 328 V315" fill="#DADCCE"/><ellipse cx="200" cy="315" rx="143" ry="34" fill="#E8EDDF"/><ellipse cx="200" cy="312" rx="126" ry="27" fill="#F4F5EC"/><ellipse cx="200" cy="313" rx="88" ry="12" fill="#9DA98E" opacity=".17"/><g><path d="M183 201 L147 214 L135 234 M215 201 L252 214 L267 234" stroke="#7B826E" stroke-width="4" stroke-linecap="round" stroke-linejoin="round" fill="none"/><path d="M183 223 L147 236 L135 256 M215 223 L252 236 L267 256" stroke="#7B826E" stroke-width="4" stroke-linecap="round" stroke-linejoin="round" fill="none"/><path d="M183 245 L147 258 L135 278 M215 245 L252 258 L267 278" stroke="#7B826E" stroke-width="4" stroke-linecap="round" stroke-linejoin="round" fill="none"/><ellipse cx="200" cy="234" rx="16" ry="58" fill="url(#mA49383)"/><ellipse cx="161" cy="201" rx="17" ry="60" transform="rotate(-38 161 201)" opacity=".9" fill="url(#mCEDDD3)"/><path d="M185 234 L145 171" stroke="#A6BEB4" stroke-width="2" stroke-linecap="round" stroke-linejoin="round" fill="none"/><ellipse cx="239" cy="201" rx="17" ry="60" transform="rotate(38 239 201)" opacity=".9" fill="url(#mCEDDD3)"/><path d="M215 234 L255 171" stroke="#A6BEB4" stroke-width="2" stroke-linecap="round" stroke-linejoin="round" fill="none"/><ellipse cx="200" cy="173" rx="25" ry="25" fill="url(#mA49383)"/><ellipse cx="186" cy="170" rx="9" ry="9" fill="url(#m8A9888)"/><ellipse cx="214" cy="170" rx="9" ry="9" fill="url(#m8A9888)"/><ellipse cx="187" cy="169" rx="3" ry="3.9000000000000004" fill="url(#m333A3E)"/><ellipse cx="186.1" cy="167.8" rx="0.8999999999999999" ry="0.8999999999999999" fill="#FFFFFF"/><ellipse cx="213" cy="169" rx="3" ry="3.9000000000000004" fill="url(#m333A3E)"/><ellipse cx="212.1" cy="167.8" rx="0.8999999999999999" ry="0.8999999999999999" fill="#FFFFFF"/><path d="M186 154 l-13 -17 M213 154 l13 -17" stroke="#7B826E" stroke-width="3" stroke-linecap="round" stroke-linejoin="round" fill="none"/><path d="M200 153 L205 116" stroke="#887E68" stroke-width="3" stroke-linecap="round" stroke-linejoin="round" fill="none"/></g></svg>