<svg xmlns="http://www.w3.org/2000/svg" width="1024" height="1024" viewBox="0 0 400 400" role="img"><title>코</title><desc>Resolution-independent vocabulary illustration. Vector paths only. No embedded raster images.</desc><defs><radialGradient id="mE0B69C" cx=".28" cy=".2" r=".86"><stop stop-color="#eacfbe"/><stop offset=".5" stop-color="#E0B69C"/><stop offset="1" stop-color="#b3917c"/></radialGradient><radialGradient id="mAD8067" cx=".28" cy=".2" r=".86"><stop stop-color="#c9ac9c"/><stop offset=".5" stop-color="#AD8067"/><stop offset="1" stop-color="#8a6652"/></radialGradient><radialGradient id="me5c3ae" cx=".28" cy=".2" r=".86"><stop stop-color="#eed8ca"/><stop offset=".5" stop-color="#e5c3ae"/><stop offset="1" stop-color="#b79c8b"/></radialGradient></defs><rect width="400" height="400" rx="32" fill="#FBF8F1"/><ellipse cx="202" cy="347" rx="137" ry="19" fill="#CAC3B6" opacity=".15"/><path d="M57 315 V328 C57 355 343 355 343 328 V315" fill="#DADCCE"/><ellipse cx="200" cy="315" rx="143" ry="34" fill="#E8EDDF"/><ellipse cx="200" cy="312" rx="126" ry="27" fill="#F4F5EC"/><ellipse cx="200" cy="313" rx="88" ry="12" fill="#9DA98E" opacity=".17"/><g><path d="M170 112 Q202 100 221 113 L227 196 Q254 219 253 248 Q242 274 202 266 Q158 277 149 247 Q146 222 173 197Z" stroke-linecap="round" stroke-linejoin="round" fill="url(#mE0B69C)"/><ellipse cx="172" cy="249" rx="11" ry="7" fill="url(#mAD8067)"/><ellipse cx="231" cy="248" rx="10" ry="7" fill="url(#mAD8067)"/><ellipse cx="200" cy="235" rx="28" ry="20" fill="url(#me5c3ae)"/></g></svg>