<svg xmlns="http://www.w3.org/2000/svg" width="1024" height="1024" viewBox="0 0 400 400" role="img"><title>국 · 미니어처 일러스트</title><defs><filter id="shadow" x="-30%" y="-30%" width="170%" height="180%"><feDropShadow dx="2" dy="7" stdDeviation="4" flood-color="#64594c" flood-opacity=".14"/></filter><radialGradient id="g71A664" cx="32%" cy="23%" r="90%"><stop stop-color="#adcba5"/><stop offset=".46" stop-color="#71A664"/><stop offset="1" stop-color="#5a8550"/></radialGradient><radialGradient id="gC4B7A1" cx="32%" cy="23%" r="90%"><stop stop-color="#ddd5c8"/><stop offset=".46" stop-color="#C4B7A1"/><stop offset="1" stop-color="#9d9281"/></radialGradient><radialGradient id="gD8B56F" cx="32%" cy="23%" r="90%"><stop stop-color="#e8d4ab"/><stop offset=".46" stop-color="#D8B56F"/><stop offset="1" stop-color="#ad9159"/></radialGradient><radialGradient id="gDFA277" cx="32%" cy="23%" r="90%"><stop stop-color="#ecc9b0"/><stop offset=".46" stop-color="#DFA277"/><stop offset="1" stop-color="#b2825f"/></radialGradient><radialGradient id="gE7DFCA" cx="32%" cy="23%" r="90%"><stop stop-color="#f1ece0"/><stop offset=".46" stop-color="#E7DFCA"/><stop offset="1" stop-color="#b9b2a2"/></radialGradient></defs><rect width="400" height="400" rx="35" fill="#F8F5ED"/><ellipse cx="205" cy="348" rx="138" ry="23" fill="#CFC7B6" opacity=".23"/><path d="M57 313 V329 C57 355 343 355 343 329 V313" fill="#D9D9C8"/><ellipse cx="200" cy="313" rx="143" ry="38" fill="#E8EBDB"/><ellipse cx="200" cy="311" rx="119" ry="27" fill="#F3F3E8"/><ellipse cx="204" cy="310" rx="81" ry="13" fill="#838A73" opacity=".17"/><g filter="url(#shadow)"><path d="M119 225 Q122 311 201 313 Q278 307 285 225Z" fill="url(#gE7DFCA)" /><ellipse cx="202" cy="224" rx="83" ry="31" fill="url(#gC4B7A1)" /><ellipse cx="202" cy="224" rx="71" ry="23" fill="url(#gD8B56F)" /><rect x="163" y="219" width="15" height="10" rx="3" fill="url(#gDFA277)" /><rect x="210" y="211" width="15" height="10" rx="3" fill="url(#gDFA277)" /><rect x="241" y="229" width="15" height="10" rx="3" fill="url(#gDFA277)" /><g transform="translate(186 231) rotate(80) scale(0.32)"><path d="M0 0 C-30 -4 -28 -36 6 -45 C27 -18 20 -2 0 0" fill="url(#g71A664)" /><path d="M0 0 L3 -32" fill="none" stroke="#4F804A" stroke-width="2" stroke-linecap="round" stroke-linejoin="round"/></g><g transform="translate(222 240) rotate(-40) scale(0.32)"><path d="M0 0 C-30 -4 -28 -36 6 -45 C27 -18 20 -2 0 0" fill="url(#g71A664)" /><path d="M0 0 L3 -32" fill="none" stroke="#4F804A" stroke-width="2" stroke-linecap="round" stroke-linejoin="round"/></g><path d="M167 167 Q151 151 168 134 M203 161 Q187 140 205 121 M238 174 Q225 157 241 140" fill="none" stroke="#DBD8C9" stroke-width="5" stroke-linecap="round" stroke-linejoin="round"/><path d="M136 259 Q202 284 267 258" fill="none" stroke="#F8F2E5" stroke-width="3" stroke-linecap="round" stroke-linejoin="round"/></g></svg>