<svg xmlns="http://www.w3.org/2000/svg" width="1024" height="1024" viewBox="0 0 400 400" role="img"><title>거미</title><desc>Resolution-independent vocabulary illustration. Vector paths only. No embedded raster images.</desc><defs><radialGradient id="m968E99" cx=".28" cy=".2" r=".86"><stop stop-color="#bab5bc"/><stop offset=".5" stop-color="#968E99"/><stop offset="1" stop-color="#78717a"/></radialGradient><radialGradient id="m7E7583" cx=".28" cy=".2" r=".86"><stop stop-color="#aba5ae"/><stop offset=".5" stop-color="#7E7583"/><stop offset="1" stop-color="#645d68"/></radialGradient><radialGradient id="m333A3E" cx=".28" cy=".2" r=".86"><stop stop-color="#7a7e81"/><stop offset=".5" stop-color="#333A3E"/><stop offset="1" stop-color="#282e31"/></radialGradient></defs><rect width="400" height="400" rx="32" fill="#FBF8F1"/><ellipse cx="202" cy="347" rx="137" ry="19" fill="#CAC3B6" opacity=".15"/><path d="M57 315 V328 C57 355 343 355 343 328 V315" fill="#DADCCE"/><ellipse cx="200" cy="315" rx="143" ry="34" fill="#E8EDDF"/><ellipse cx="200" cy="312" rx="126" ry="27" fill="#F4F5EC"/><ellipse cx="200" cy="313" rx="88" ry="12" fill="#9DA98E" opacity=".17"/><g><path d="M177 213 L150 205 L130 233" stroke="#817B80" stroke-width="5" stroke-linecap="round" stroke-linejoin="round" fill="none"/><path d="M177 230 L145 222 L127 250" stroke="#817B80" stroke-width="5" stroke-linecap="round" stroke-linejoin="round" fill="none"/><path d="M177 247 L140 239 L124 267" stroke="#817B80" stroke-width="5" stroke-linecap="round" stroke-linejoin="round" fill="none"/><path d="M177 264 L135 256 L121 284" stroke="#817B80" stroke-width="5" stroke-linecap="round" stroke-linejoin="round" fill="none"/><path d="M223 213 L250 205 L270 233" stroke="#817B80" stroke-width="5" stroke-linecap="round" stroke-linejoin="round" fill="none"/><path d="M223 230 L255 222 L273 250" stroke="#817B80" stroke-width="5" stroke-linecap="round" stroke-linejoin="round" fill="none"/><path d="M223 247 L260 239 L276 267" stroke="#817B80" stroke-width="5" stroke-linecap="round" stroke-linejoin="round" fill="none"/><path d="M223 264 L265 256 L279 284" stroke="#817B80" stroke-width="5" stroke-linecap="round" stroke-linejoin="round" fill="none"/><ellipse cx="200" cy="230" rx="40" ry="44" fill="url(#m968E99)"/><ellipse cx="200" cy="187" rx="27" ry="27" fill="url(#m7E7583)"/><ellipse cx="188" cy="179" rx="4" ry="5.2" fill="url(#m333A3E)"/><ellipse cx="186.8" cy="177.4" rx="1.2" ry="1.2" fill="#FFFFFF"/><ellipse cx="211" cy="179" rx="4" ry="5.2" fill="url(#m333A3E)"/><ellipse cx="209.8" cy="177.4" rx="1.2" ry="1.2" fill="#FFFFFF"/></g></svg>