<svg xmlns="http://www.w3.org/2000/svg" viewBox="0 0 400 400" role="img"><title>바나나 · 미니어처 일러스트</title><defs><filter id="shadow" x="-30%" y="-30%" width="170%" height="180%"><feDropShadow dx="2" dy="7" stdDeviation="4" flood-color="#64594c" flood-opacity=".14"/></filter><radialGradient id="g8A8060" cx="32%" cy="23%" r="90%"><stop stop-color="#bbb5a3"/><stop offset=".46" stop-color="#8A8060"/><stop offset="1" stop-color="#6e664d"/></radialGradient><radialGradient id="g9D8655" cx="32%" cy="23%" r="90%"><stop stop-color="#c6b99c"/><stop offset=".46" stop-color="#9D8655"/><stop offset="1" stop-color="#7e6b44"/></radialGradient><radialGradient id="gEFCC54" cx="32%" cy="23%" r="90%"><stop stop-color="#f6e19c"/><stop offset=".46" stop-color="#EFCC54"/><stop offset="1" stop-color="#bfa343"/></radialGradient><radialGradient id="gF7DF7E" cx="32%" cy="23%" r="90%"><stop stop-color="#faecb4"/><stop offset=".46" stop-color="#F7DF7E"/><stop offset="1" stop-color="#c6b265"/></radialGradient></defs><rect width="400" height="400" rx="35" fill="#F8F5ED"/><ellipse cx="205" cy="348" rx="138" ry="23" fill="#CFC7B6" opacity=".23"/><path d="M57 313 V329 C57 355 343 355 343 329 V313" fill="#D9D9C8"/><ellipse cx="200" cy="313" rx="143" ry="38" fill="#E8EBDB"/><ellipse cx="200" cy="311" rx="119" ry="27" fill="#F3F3E8"/><ellipse cx="204" cy="310" rx="81" ry="13" fill="#838A73" opacity=".17"/><g filter="url(#shadow)"><path d="M116 147 C124 238 204 273 283 183 Q275 277 207 306 Q128 318 101 235 Q85 189 103 147Z" fill="url(#gEFCC54)" /><path d="M122 158 C144 242 201 243 267 193 Q222 276 171 271 Q122 251 111 196Z" fill="url(#gF7DF7E)" /><path d="M101 149 L105 125 L122 128 L118 155Z" fill="url(#g8A8060)" /><path d="M274 191 L283 174 L292 180 L284 201Z" fill="url(#g9D8655)" /></g></svg>