<svg xmlns="http://www.w3.org/2000/svg" viewBox="0 0 400 400" role="img"><title>딸기 · 미니어처 일러스트</title><defs><filter id="shadow" x="-30%" y="-30%" width="170%" height="180%"><feDropShadow dx="2" dy="7" stdDeviation="4" flood-color="#64594c" flood-opacity=".14"/></filter><radialGradient id="g78A568" cx="32%" cy="23%" r="90%"><stop stop-color="#b1cba7"/><stop offset=".46" stop-color="#78A568"/><stop offset="1" stop-color="#608453"/></radialGradient><radialGradient id="gDC655B" cx="32%" cy="23%" r="90%"><stop stop-color="#eba6a0"/><stop offset=".46" stop-color="#DC655B"/><stop offset="1" stop-color="#b05149"/></radialGradient><radialGradient id="gF1D4A1" cx="32%" cy="23%" r="90%"><stop stop-color="#f7e6c8"/><stop offset=".46" stop-color="#F1D4A1"/><stop offset="1" stop-color="#c1aa81"/></radialGradient></defs><rect width="400" height="400" rx="35" fill="#F8F5ED"/><ellipse cx="205" cy="348" rx="138" ry="23" fill="#CFC7B6" opacity=".23"/><path d="M57 313 V329 C57 355 343 355 343 329 V313" fill="#D9D9C8"/><ellipse cx="200" cy="313" rx="143" ry="38" fill="#E8EBDB"/><ellipse cx="200" cy="311" rx="119" ry="27" fill="#F3F3E8"/><ellipse cx="204" cy="310" rx="81" ry="13" fill="#838A73" opacity=".17"/><g filter="url(#shadow)"><path d="M200 137 C91 109 118 242 187 304 Q199 317 213 302 C286 240 309 113 200 137Z" fill="url(#gDC655B)" /><path d="M199 154 L167 124 L183 126 L193 104 L207 128 L238 115 L226 144 L254 154 L216 165 L196 187 L185 160 L155 160Z" fill="url(#g78A568)" /><ellipse cx="157" cy="178" rx="3" ry="5" fill="url(#gF1D4A1)" /><ellipse cx="187" cy="204" rx="3" ry="5" fill="url(#gF1D4A1)" /><ellipse cx="224" cy="181" rx="3" ry="5" fill="url(#gF1D4A1)" /><ellipse cx="249" cy="201" rx="3" ry="5" fill="url(#gF1D4A1)" /><ellipse cx="164" cy="225" rx="3" ry="5" fill="url(#gF1D4A1)" /><ellipse cx="211" cy="246" rx="3" ry="5" fill="url(#gF1D4A1)" /><ellipse cx="195" cy="281" rx="3" ry="5" fill="url(#gF1D4A1)" /><ellipse cx="237" cy="235" rx="3" ry="5" fill="url(#gF1D4A1)" /></g></svg>