<svg xmlns="http://www.w3.org/2000/svg" viewBox="0 0 400 400" role="img"><title>물 · 미니어처 일러스트</title><defs><filter id="shadow" x="-30%" y="-30%" width="170%" height="180%"><feDropShadow dx="2" dy="7" stdDeviation="4" flood-color="#64594c" flood-opacity=".14"/></filter><radialGradient id="g9AC7D5" cx="32%" cy="23%" r="90%"><stop stop-color="#c4dfe7"/><stop offset=".46" stop-color="#9AC7D5"/><stop offset="1" stop-color="#7b9faa"/></radialGradient><radialGradient id="gB5CFD2" cx="32%" cy="23%" r="90%"><stop stop-color="#d4e3e5"/><stop offset=".46" stop-color="#B5CFD2"/><stop offset="1" stop-color="#91a6a8"/></radialGradient><radialGradient id="gBFDFE3" cx="32%" cy="23%" r="90%"><stop stop-color="#daecef"/><stop offset=".46" stop-color="#BFDFE3"/><stop offset="1" stop-color="#99b2b6"/></radialGradient><radialGradient id="gC8DDDF" cx="32%" cy="23%" r="90%"><stop stop-color="#dfebec"/><stop offset=".46" stop-color="#C8DDDF"/><stop offset="1" stop-color="#a0b1b2"/></radialGradient><radialGradient id="gD3E3E3" cx="32%" cy="23%" r="90%"><stop stop-color="#e5efef"/><stop offset=".46" stop-color="#D3E3E3"/><stop offset="1" stop-color="#a9b6b6"/></radialGradient></defs><rect width="400" height="400" rx="35" fill="#F8F5ED"/><ellipse cx="205" cy="348" rx="138" ry="23" fill="#CFC7B6" opacity=".23"/><path d="M57 313 V329 C57 355 343 355 343 329 V313" fill="#D9D9C8"/><ellipse cx="200" cy="313" rx="143" ry="38" fill="#E8EBDB"/><ellipse cx="200" cy="311" rx="119" ry="27" fill="#F3F3E8"/><ellipse cx="204" cy="310" rx="81" ry="13" fill="#838A73" opacity=".17"/><g filter="url(#shadow)"><path d="M142 140 L263 140 L249 294 Q204 319 153 294Z" fill="url(#gC8DDDF)" /><path d="M153 174 L251 174 L240 286 Q203 302 163 287Z" fill="url(#g9AC7D5)" /><ellipse cx="202" cy="174" rx="48" ry="13" fill="url(#gBFDFE3)" /><ellipse cx="202" cy="140" rx="61" ry="17" fill="url(#gD3E3E3)" /><ellipse cx="202" cy="140" rx="49" ry="11" fill="url(#gB5CFD2)" /><path d="M160 158 L170 270" fill="none" stroke="#F3F5ED" stroke-width="5" stroke-linecap="round" stroke-linejoin="round"/></g></svg>